# xmcd CD database file
#
# Track frame offsets:
#	150
#	17485
#	30723
#	47998
#	61946
#	74281
#	92077
#	111831
#	126399
#	144714
#	160957
#	181115
#	194771
#	208844
#
# Disc length: 2961 seconds
#
# Revision: 2
# Processed by: cddbd v1.5.1PL0 Copyright (c) Steve Scherf et al.
# Submitted via: CDex 1.51
#
DISCID=d10b8f0e
DTITLE=Ilse de lange - World of hurt
DYEAR=1998
DGENRE=Blues
TTITLE0=Track01  Flying  Blind
TTITLE1=Track02  Lonely Too
TTITLE2=Track03  Just Like The Moon
TTITLE3=Track04  What Does Your Heart Say Now
TTITLE4=Track05  I'd Be Yours
TTITLE5=Track06  World Of Hurt
TTITLE6=Track07  All The Woman You'll Ever Need
TTITLE7=Track08  If You Had The Heart
TTITLE8=Track09  Flying Solo
TTITLE9=Track10  Old Tears
TTITLE10=Track11  I'm Not So Tough
TTITLE11=Track12  When We Don't Talk
TTITLE12=Track13 Tap Dancing On  The Highwire
TTITLE13=Track14 You Are The Dream
EXTD=YEAR: 1998
EXTT0=
EXTT1=
EXTT2=
EXTT3=
EXTT4=
EXTT5=
EXTT6=
EXTT7=
EXTT8=
EXTT9=
EXTT10=
EXTT11=
EXTT12=
EXTT13=
PLAYORDER=
